<svg version="1" xmlns="http://www.w3.org/2000/svg" width="800" height="800" viewBox="0 0 600.000000 600.000000"><path d="M157.3 139.7c-5.7 1.9-13.2 8.9-16.3 14.9l-2.5 4.9v293l2.8 5.7c5.3 10.7 15.4 16.6 26.8 15.5 7.1-.6 14.9-4.7 19.1-9.9 6-7.6 5.8-3.7 5.8-114.7 0-85.5.2-101.3 1.4-100.1.7.8 18.3 28.5 39.1 61.5s39.6 61.9 41.8 64.2c11.8 12.4 27.2 13.1 40.3 1.9 2.5-2.2 18-25 43.4-63.8l39.5-60.4.5 99.6c.4 76.2.9 100.4 1.8 103.2 3.5 10.2 14.4 17.8 26.7 18.6 9.4.5 17.1-2.3 23.5-8.7 8.7-8.7 8 4.3 8-159.1 0-107.1-.3-145.6-1.2-148.1-1.9-5.8-6.4-11.4-12.2-15.4-5.1-3.5-6.3-3.9-13.6-4.3-7.5-.4-8.5-.2-14.4 2.7-4.7 2.3-7.4 4.5-10.3 8.4-2.2 2.8-27.3 40.1-55.8 82.7-28.5 42.6-52.1 77.9-52.5 78.3-.4.4-24.7-36.2-54.1-81.3-57.1-87.7-55.7-85.8-66.3-89.3-6-2.1-15.6-2.1-21.3 0z"/></svg>