<svg version="1" xmlns="http://www.w3.org/2000/svg" width="800" height="800" viewBox="0 0 600.000000 600.000000"><path d="M208.5 140c-6.2 2.4-13 8.9-15.9 15l-2.1 4.5v294l2.4 4.5c3 5.8 7.6 10.6 12.6 13.3 5.7 3.1 18.3 3.1 24.1 0 5.3-2.8 9.9-7.4 12.7-12.7 2.2-4.1 2.2-4.7 2.5-54.3l.3-50.2 48.2-.3c53.8-.4 53.4-.4 69.3-7.8 37-17.1 61.4-57 61.4-100.4 0-26.7-8.5-50.3-26.1-72.1-12.4-15.4-29.5-27-48-32.7-7.3-2.2-8.1-2.2-71.9-2.5-62.1-.2-64.7-.2-69.5 1.7zm126.2 54.3c12.9 3.4 26 19.6 30.3 37.7 2.1 8.5 1.6 23.2-1 31.5-4.8 15.3-14.5 28-25.1 33l-5.4 2.5H245V193h42.3c31.8 0 43.5.3 47.4 1.3z"/></svg>